<?xml version="1.0" encoding="UTF-8" standalone="no"?><!DOCTYPE svg PUBLIC "-//W3C//DTD SVG 1.1//EN" "http://www.w3.org/Graphics/SVG/1.1/DTD/svg11.dtd"><!-- Generated by graphviz version 2.40.1 (20161225.0304)
 --><!-- Title: %0 Pages: 1 --><svg xmlns="http://www.w3.org/2000/svg" xmlns:xlink="http://www.w3.org/1999/xlink" width="729pt" height="332pt" viewBox="0.00 0.00 729.01 332.00">
<g id="graph0" class="graph" transform="scale(1 1) rotate(0) translate(4 328)">
<title>%0</title>
<polygon fill="#ffffff" stroke="transparent" points="-4,4 -4,-328 725.0132,-328 725.0132,4 -4,4"/>
<!-- 0 -->
<g id="node1" class="node">
<title>0</title>
<ellipse fill="none" stroke="#000000" cx="541.0278" cy="-306" rx="90.3583" ry="18"/>
<text text-anchor="middle" x="541.0278" y="-301.8" font-family="Times,serif" font-size="14.00" fill="#000000">ld-linux-x86-64.so.2</text>
</g>
<!-- 1 -->
<g id="node2" class="node">
<title>1</title>
<ellipse fill="none" stroke="#000000" cx="371.0278" cy="-234" rx="43.5214" ry="18"/>
<text text-anchor="middle" x="371.0278" y="-229.8" font-family="Times,serif" font-size="14.00" fill="#000000">libc.so.6</text>
</g>
<!-- 0&#45;&gt;1 -->
<g id="edge1" class="edge">
<title>0-&gt;1</title>
<path fill="none" stroke="#000000" d="M502.4521,-289.6621C475.1112,-278.0824 438.5263,-262.5876 410.8993,-250.8868"/>
<polygon fill="#000000" stroke="#000000" points="412.1039,-247.596 401.5307,-246.9189 409.3739,-254.0418 412.1039,-247.596"/>
</g>
<!-- 5 -->
<g id="node6" class="node">
<title>5</title>
<ellipse fill="none" stroke="#000000" cx="674.0278" cy="-162" rx="46.9709" ry="18"/>
<text text-anchor="middle" x="674.0278" y="-157.8" font-family="Times,serif" font-size="14.00" fill="#000000">libm.so.6</text>
</g>
<!-- 0&#45;&gt;5 -->
<g id="edge2" class="edge">
<title>0-&gt;5</title>
<path fill="none" stroke="#000000" d="M557.6034,-288.0535C581.1541,-262.555 624.3913,-215.7417 651.0311,-186.8986"/>
<polygon fill="#000000" stroke="#000000" points="653.8609,-188.9933 658.0747,-179.2725 648.7186,-184.2439 653.8609,-188.9933"/>
</g>
<!-- 6 -->
<g id="node7" class="node">
<title>6</title>
<ellipse fill="none" stroke="#000000" cx="541.0278" cy="-162" rx="68.3613" ry="18"/>
<text text-anchor="middle" x="541.0278" y="-157.8" font-family="Times,serif" font-size="14.00" fill="#000000">libpthread.so.0</text>
</g>
<!-- 0&#45;&gt;6 -->
<g id="edge3" class="edge">
<title>0-&gt;6</title>
<path fill="none" stroke="#000000" d="M541.0278,-287.7623C541.0278,-263.201 541.0278,-219.2474 541.0278,-190.3541"/>
<polygon fill="#000000" stroke="#000000" points="544.5279,-190.0896 541.0278,-180.0896 537.5279,-190.0897 544.5279,-190.0896"/>
</g>
<!-- 2 -->
<g id="node3" class="node">
<title>2</title>
<ellipse fill="none" stroke="#000000" cx="281.0278" cy="-90" rx="54.4952" ry="18"/>
<text text-anchor="middle" x="281.0278" y="-85.8" font-family="Times,serif" font-size="14.00" fill="#000000">libjbig.so.0</text>
</g>
<!-- 1&#45;&gt;2 -->
<g id="edge4" class="edge">
<title>1-&gt;2</title>
<path fill="none" stroke="#000000" d="M336.4808,-222.6594C316.7865,-214.2247 293.7562,-200.5665 282.0278,-180 271.431,-161.4181 271.8814,-136.9737 274.5943,-118.2502"/>
<polygon fill="#000000" stroke="#000000" points="278.0695,-118.6945 276.3323,-108.2431 271.1727,-117.4967 278.0695,-118.6945"/>
</g>
<!-- 3 -->
<g id="node4" class="node">
<title>3</title>
<ellipse fill="none" stroke="#000000" cx="115.0278" cy="-90" rx="56.2015" ry="18"/>
<text text-anchor="middle" x="115.0278" y="-85.8" font-family="Times,serif" font-size="14.00" fill="#000000">libjpeg.so.8</text>
</g>
<!-- 1&#45;&gt;3 -->
<g id="edge5" class="edge">
<title>1-&gt;3</title>
<path fill="none" stroke="#000000" d="M328.6918,-229.3171C288.7724,-223.2352 228.7126,-209.6404 185.0278,-180 161.1639,-163.8083 141.7909,-136.8978 129.5261,-116.7124"/>
<polygon fill="#000000" stroke="#000000" points="132.4789,-114.8288 124.4004,-107.974 126.4409,-118.3705 132.4789,-114.8288"/>
</g>
<!-- 4 -->
<g id="node5" class="node">
<title>4</title>
<ellipse fill="none" stroke="#000000" cx="449.0278" cy="-90" rx="58.4861" ry="18"/>
<text text-anchor="middle" x="449.0278" y="-85.8" font-family="Times,serif" font-size="14.00" fill="#000000">liblzma.so.5</text>
</g>
<!-- 1&#45;&gt;4 -->
<g id="edge6" class="edge">
<title>1-&gt;4</title>
<path fill="none" stroke="#000000" d="M380.5921,-216.3428C394.1004,-191.4043 418.8729,-145.6705 434.6166,-116.6052"/>
<polygon fill="#000000" stroke="#000000" points="437.6998,-118.2616 439.3852,-107.8017 431.5448,-114.9276 437.6998,-118.2616"/>
</g>
<!-- 1&#45;&gt;5 -->
<g id="edge7" class="edge">
<title>1-&gt;5</title>
<path fill="none" stroke="#000000" d="M411.0968,-226.467C460.1936,-216.9555 545.7629,-199.4655 618.0278,-180 621.5899,-179.0405 625.2619,-177.9933 628.9417,-176.9024"/>
<polygon fill="#000000" stroke="#000000" points="630.0897,-180.2115 638.6308,-173.9424 628.0445,-173.5169 630.0897,-180.2115"/>
</g>
<!-- 1&#45;&gt;6 -->
<g id="edge8" class="edge">
<title>1-&gt;6</title>
<path fill="none" stroke="#000000" d="M401.8135,-220.9613C427.974,-209.8816 465.8933,-193.8217 495.5529,-181.2599"/>
<polygon fill="#000000" stroke="#000000" points="497.0239,-184.438 504.867,-177.3151 494.2939,-177.9923 497.0239,-184.438"/>
</g>
<!-- 7 -->
<g id="node8" class="node">
<title>7</title>
<ellipse fill="none" stroke="#000000" cx="322.0278" cy="-18" rx="44.0551" ry="18"/>
<text text-anchor="middle" x="322.0278" y="-13.8" font-family="Times,serif" font-size="14.00" fill="#000000">libtiff.so</text>
</g>
<!-- 1&#45;&gt;7 -->
<g id="edge9" class="edge">
<title>1-&gt;7</title>
<path fill="none" stroke="#000000" d="M338.7676,-221.5857C317.4144,-212.3063 289.6525,-198.1149 269.0278,-180 239.5641,-154.1219 229.9213,-145.3674 218.0278,-108 213.175,-92.7537 209.7202,-85.6742 218.0278,-72 230.3942,-51.6449 253.1995,-38.6138 274.31,-30.465"/>
<polygon fill="#000000" stroke="#000000" points="275.6085,-33.7179 283.8466,-27.0558 273.252,-27.1264 275.6085,-33.7179"/>
</g>
<!-- 8 -->
<g id="node9" class="node">
<title>8</title>
<ellipse fill="none" stroke="#000000" cx="586.0278" cy="-90" rx="60.2769" ry="18"/>
<text text-anchor="middle" x="586.0278" y="-85.8" font-family="Times,serif" font-size="14.00" fill="#000000">libwebp.so.6</text>
</g>
<!-- 1&#45;&gt;8 -->
<g id="edge10" class="edge">
<title>1-&gt;8</title>
<path fill="none" stroke="#000000" d="M387.7224,-217.219C412.1209,-192.7911 455.5492,-149.712 464.0278,-144 486.2992,-128.9958 513.4204,-116.5063 536.4307,-107.3313"/>
<polygon fill="#000000" stroke="#000000" points="537.9629,-110.4908 546.0144,-103.6044 535.4258,-103.9668 537.9629,-110.4908"/>
</g>
<!-- 9 -->
<g id="node10" class="node">
<title>9</title>
<ellipse fill="none" stroke="#000000" cx="335.0278" cy="-162" rx="43.5214" ry="18"/>
<text text-anchor="middle" x="335.0278" y="-157.8" font-family="Times,serif" font-size="14.00" fill="#000000">libz.so.1</text>
</g>
<!-- 1&#45;&gt;9 -->
<g id="edge11" class="edge">
<title>1-&gt;9</title>
<path fill="none" stroke="#000000" d="M362.1289,-216.2022C358.0182,-207.981 353.0483,-198.041 348.4928,-188.9301"/>
<polygon fill="#000000" stroke="#000000" points="351.5517,-187.2216 343.949,-179.8425 345.2907,-190.3521 351.5517,-187.2216"/>
</g>
<!-- 10 -->
<g id="node11" class="node">
<title>10</title>
<ellipse fill="none" stroke="#000000" cx="55.0278" cy="-162" rx="55.0555" ry="18"/>
<text text-anchor="middle" x="55.0278" y="-157.8" font-family="Times,serif" font-size="14.00" fill="#000000">libzstd.so.1</text>
</g>
<!-- 1&#45;&gt;10 -->
<g id="edge12" class="edge">
<title>1-&gt;10</title>
<path fill="none" stroke="#000000" d="M331.5605,-225.879C282.7069,-215.71 197.0211,-197.4925 124.0278,-180 118.6854,-178.7197 113.1218,-177.3424 107.5744,-175.9403"/>
<polygon fill="#000000" stroke="#000000" points="108.2129,-172.491 97.6575,-173.405 106.479,-179.2729 108.2129,-172.491"/>
</g>
<!-- 2&#45;&gt;7 -->
<g id="edge13" class="edge">
<title>2-&gt;7</title>
<path fill="none" stroke="#000000" d="M291.1626,-72.2022C295.929,-63.832 301.7099,-53.6802 306.9742,-44.4356"/>
<polygon fill="#000000" stroke="#000000" points="310.1025,-46.0148 312.0095,-35.593 304.0196,-42.5509 310.1025,-46.0148"/>
</g>
<!-- 3&#45;&gt;7 -->
<g id="edge14" class="edge">
<title>3-&gt;7</title>
<path fill="none" stroke="#000000" d="M153.4777,-76.6261C189.0035,-64.2693 241.7245,-45.9316 278.7199,-33.0636"/>
<polygon fill="#000000" stroke="#000000" points="279.9425,-36.3441 288.2376,-29.7531 277.6428,-29.7326 279.9425,-36.3441"/>
</g>
<!-- 4&#45;&gt;7 -->
<g id="edge15" class="edge">
<title>4-&gt;7</title>
<path fill="none" stroke="#000000" d="M420.8423,-74.0209C401.9577,-63.3146 376.9631,-49.1445 356.8372,-37.7345"/>
<polygon fill="#000000" stroke="#000000" points="358.3976,-34.5958 347.9722,-32.7087 354.9453,-40.6853 358.3976,-34.5958"/>
</g>
<!-- 5&#45;&gt;7 -->
<g id="edge16" class="edge">
<title>5-&gt;7</title>
<path fill="none" stroke="#000000" d="M675.718,-143.9712C676.5574,-123.4901 674.4417,-90.5168 655.0278,-72 615.9199,-34.6993 460.1354,-23.1151 376.2253,-19.5544"/>
<polygon fill="#000000" stroke="#000000" points="376.2467,-16.0526 366.1146,-19.1495 375.9665,-23.047 376.2467,-16.0526"/>
</g>
<!-- 5&#45;&gt;8 -->
<g id="edge17" class="edge">
<title>5-&gt;8</title>
<path fill="none" stroke="#000000" d="M654.0592,-145.6621C642.4949,-136.2004 627.7357,-124.1247 614.9219,-113.6407"/>
<polygon fill="#000000" stroke="#000000" points="616.7914,-110.6481 606.8355,-107.0245 612.3587,-116.0658 616.7914,-110.6481"/>
</g>
<!-- 6&#45;&gt;4 -->
<g id="edge18" class="edge">
<title>6-&gt;4</title>
<path fill="none" stroke="#000000" d="M519.225,-144.937C507.0801,-135.4323 491.7894,-123.4656 478.5817,-113.1292"/>
<polygon fill="#000000" stroke="#000000" points="480.7061,-110.3474 470.674,-106.9405 476.3919,-115.8599 480.7061,-110.3474"/>
</g>
<!-- 6&#45;&gt;8 -->
<g id="edge19" class="edge">
<title>6-&gt;8</title>
<path fill="none" stroke="#000000" d="M552.1514,-144.2022C557.3978,-135.8079 563.7642,-125.6218 569.5553,-116.3558"/>
<polygon fill="#000000" stroke="#000000" points="572.5441,-118.1776 574.8762,-107.8425 566.6081,-114.4675 572.5441,-118.1776"/>
</g>
<!-- 8&#45;&gt;7 -->
<g id="edge20" class="edge">
<title>8-&gt;7</title>
<path fill="none" stroke="#000000" d="M541.2438,-77.7862C493.2114,-64.6865 417.2916,-43.9811 368.5857,-30.6976"/>
<polygon fill="#000000" stroke="#000000" points="369.4933,-27.3174 358.9247,-28.0628 367.6514,-34.0707 369.4933,-27.3174"/>
</g>
<!-- 9&#45;&gt;7 -->
<g id="edge21" class="edge">
<title>9-&gt;7</title>
<path fill="none" stroke="#000000" d="M339.913,-143.9252C344.1345,-125.6483 348.8576,-96.6561 344.0278,-72 342.2654,-63.0032 338.9967,-53.6139 335.508,-45.2358"/>
<polygon fill="#000000" stroke="#000000" points="338.6429,-43.6709 331.3886,-35.9491 332.2441,-46.5094 338.6429,-43.6709"/>
</g>
<!-- 10&#45;&gt;7 -->
<g id="edge22" class="edge">
<title>10-&gt;7</title>
<path fill="none" stroke="#000000" d="M47.4964,-143.895C40.54,-123.9596 33.5441,-92.0778 50.0278,-72 77.0702,-39.0611 196.7996,-25.8547 268.0825,-20.8417"/>
<polygon fill="#000000" stroke="#000000" points="268.4884,-24.3225 278.2314,-20.1602 268.0193,-17.3382 268.4884,-24.3225"/>
</g>
</g>
</svg>